<svg height="800px" width="800px" version="1.1" id="Capa_1" xmlns="http://www.w3.org/2000/svg" xmlns:xlink="http://www.w3.org/1999/xlink"
	 viewBox="0 0 58 58" xml:space="preserve">
<g>
	<path style="fill:#FC852E;" d="M34.064,54.07c-0.539-0.12-0.879-0.654-0.76-1.193c0.121-0.539,0.663-0.874,1.193-0.759l7.252,1.614
		c0.003-0.002,0.007-0.003,0.01-0.005l0.171,0.045l0.326,0.073c0.027,0.006,0.047,0.024,0.073,0.032L58,58l-4.988-14.963
		C55.543,38.78,57,33.812,57,28.5C57,12.76,44.24,0,28.5,0S0,12.76,0,28.5S12.76,57,28.5,57c3.603,0,7.048-0.673,10.221-1.894
		L34.064,54.07z"/>
	<path style="fill:#EFCE4A;" d="M8.926,18.168c-0.162,0-0.327-0.04-0.48-0.123c-0.483-0.266-0.661-0.874-0.396-1.358
		C11.843,9.774,19.06,4.915,26.885,4.007c0.558-0.066,1.045,0.331,1.108,0.878c0.063,0.548-0.329,1.045-0.878,1.108
		C19.923,6.828,13.29,11.294,9.804,17.649C9.622,17.981,9.279,18.168,8.926,18.168z"/>
</g>
</svg>

